<svg id="b05a8b24-0cfe-4b22-93a9-3846e5c8b4da" xmlns="http://www.w3.org/2000/svg" viewBox="0 0 993 671"><defs><style>.cls-1{fill:#f2f2f2;}.cls-2{fill:#ff6363;}.cls-3{fill:#fff;}.cls-4{fill:#e4e4e4;}.cls-5{opacity:0.17;}.cls-6{fill:#3f3d56;}.cls-7{fill:#f0f0f0;}.cls-8{fill:#ccc;}.cls-9{fill:#2f2e41;}.cls-10,.cls-11{opacity:0.15;}.cls-10{isolation:isolate;}.cls-12{font-size:98.96px;stroke:#f6881f;stroke-miterlimit:10;stroke-width:6px;font-family:ComicSansMS, Comic Sans MS;}</style></defs><title>pho1</title><path class="cls-1" d="M916.81,639H8.19C-15.1,639-34,627.6-34,613.55V-6.55C-34-20.6-15.1-32,8.19-32H916.81C940.1-32,959-20.6,959-6.55v620.1C959,627.6,940.1,639,916.81,639Z" transform="translate(34 32)"/><path class="cls-2" d="M493.12,39H47.88A15.64,15.64,0,0,0,32.26,54.62V465a15.64,15.64,0,0,0,15.62,15.62H493.12A15.64,15.64,0,0,0,508.74,465V54.62A15.64,15.64,0,0,0,493.12,39Z" transform="translate(34 32)"/><path class="cls-3" d="M279.54,227.61c-4.33-7.15-9.45-14.79-17.48-17.13-9.29-2.7-18.84,2.67-26.94,8a786.15,786.15,0,0,0-69.87,51.48l0,.28,52.14-3.6c12.56-.86,25.55-1.85,36.64-7.79,4.21-2.25,8.32-5.26,13.09-5.47,5.93-.26,11.1,3.88,15.16,8.2,24,25.59,31,64.72,57.94,87.2A856.08,856.08,0,0,0,279.54,227.61Z" transform="translate(34 32)"/><path class="cls-4" d="M427.24,444.63c-2.66-3.35-3.75-4.14-6.37-7.52q-32-41.42-60.17-85.61-19.14-30-36.37-61.19-8.2-14.82-16-29.87-6-11.67-11.77-23.48-1.64-3.37-3.22-6.77c-2.49-5.33-4.94-10.68-7.58-15.93-3-6-6.64-12.27-12.15-16.29a16.58,16.58,0,0,0-8.64-3.32c-4.48-.29-8.62,1.56-12.5,3.58a402.93,402.93,0,0,0-79.17,54.59A412.59,412.59,0,0,0,109,324.21c-.57.81-1.91,0-1.34-.78q3.39-4.8,6.91-9.48a414.23,414.23,0,0,1,105.8-98.68q10.29-6.68,21-12.72c3.59-2,7.19-4,10.86-5.92s7.4-3.5,11.51-3.56c14-.22,21.2,15.6,26.17,26.24q2.34,5,4.74,10,9.06,19,18.83,37.58,6,11.49,12.31,22.85,19.57,35.37,41.61,69.31c19.46,30,38.77,56.44,60.93,84.47C428.94,444.31,427.85,445.42,427.24,444.63Z" transform="translate(34 32)"/><path class="cls-4" d="M172,245l-2.43-2.72c-6.44-7.12-13.36-14.16-22.2-18.25a32.15,32.15,0,0,0-13.49-3.12,38.4,38.4,0,0,0-14,3.05c-2.1.84-4.17,1.8-6.2,2.82-2.32,1.17-4.6,2.41-6.87,3.67q-6.39,3.54-12.61,7.38-12.39,7.65-24,16.48-6,4.57-11.79,9.45-5.35,4.53-10.51,9.3c-.74.68-1.83-.42-1.1-1.1.91-.84,1.82-1.68,2.74-2.5q3.87-3.51,7.88-6.88,7.29-6.15,15-11.84Q84.27,241.92,97,234.27q6.38-3.81,12.92-7.31c1.32-.7,2.66-1.39,4-2a63.86,63.86,0,0,1,9.51-3.88,34.11,34.11,0,0,1,14.37-1.41,37.47,37.47,0,0,1,13.25,4.59c8.69,4.85,15.42,12.36,22,19.69C173.72,244.65,172.63,245.75,172,245Z" transform="translate(34 32)"/><path class="cls-4" d="M349.92,318.83l20.82-7.61,10.33-3.78a104.9,104.9,0,0,1,10.2-3.51,16,16,0,0,1,9.23.11,21.4,21.4,0,0,1,7.21,4.47,57.75,57.75,0,0,1,5.9,6.31c2.25,2.7,4.47,5.43,6.7,8.16q13.79,16.84,27.38,33.86t27,34.15q13.45,17.19,26.72,34.52l3.25,4.25c.6.78,1.95,0,1.34-.78q-13.36-17.52-26.92-34.88t-27.36-34.66Q438,342.19,424,325.08c-2.31-2.85-4.64-5.68-7-8.52-2-2.39-3.91-4.81-6.06-7-3.95-4.09-8.88-7.7-14.79-7.8-3.48-.06-6.84,1-10.07,2.21q-5.22,1.89-10.42,3.82l-21,7.66-5.24,1.92c-.93.34-.53,1.84.41,1.49Z" transform="translate(34 32)"/><path class="cls-3" d="M144.59,233a33.59,33.59,0,0,0-33.84,2.42,484.77,484.77,0,0,1,54.91,12.81C158.17,243.85,152.31,237,144.59,233Z" transform="translate(34 32)"/><path class="cls-1" d="M110.65,235.41l-2,1.65c.69-.58,1.4-1.12,2.14-1.63Z" transform="translate(34 32)"/><path class="cls-3" d="M406.92,318.91c-2.05-2.5-4.26-5.11-7.32-6.12l-2.87.11a324.58,324.58,0,0,0,86.44,98.82Z" transform="translate(34 32)"/><g class="cls-5"><path class="cls-3" d="M462.76,176.65c5.77-2.52-5.93-4-19.21-4.46s-29.33-.46-37.81-1.83c-8.21-1.32-7.6-3.68-8.29-5.81s-3.85-4.32-16.65-4.79c-15.95-.6-42.26,1.68-54.3.31-11.24-1.27-4.56-5.27-20.95-5.42-9.36-.09-21.41,1.23-31.82,1.55a116.62,116.62,0,0,1-22.09-1.15c-5.07-.84-8.61-1.89-14.32-2.62-15-1.93-44.33-1.28-70.52,1.19s-48.63,6.52-61.29,10.53-16.15,8-13.21,11.31c1.89,2.14,6.71,4.14,18.39,5,21.87,1.6,60.79-1.16,83.38.3,12.59.81,18.18,2.84,29.22,3.94,11.87,1.19,29.24,1.25,46.31,1.22q53.32-.09,109.17-1.09c15.52-.28,31.79-.64,48.31-2s33.37-3.9,36.85-6.31" transform="translate(34 32)"/></g><circle class="cls-3" cx="251.02" cy="156.42" r="2.99"/><circle class="cls-3" cx="324.23" cy="124" r="1.8"/><circle class="cls-3" cx="225.23" cy="235" r="1.8"/><circle class="cls-3" cx="431.23" cy="151.41" r="1.8"/><circle class="cls-3" cx="312.23" cy="202.41" r="1.8"/><circle class="cls-3" cx="361.23" cy="170.41" r="1.8"/><circle class="cls-3" cx="451.93" cy="266.37" r="1.8"/><circle class="cls-3" cx="107.93" cy="251.37" r="1.8"/><path class="cls-6" d="M508.74,430.11V465a15.64,15.64,0,0,1-15.62,15.62H47.88A15.64,15.64,0,0,1,32.26,465V421.4a264.06,264.06,0,0,1,70-7.48c56.9,1.24,112.47,16.43,168.84,24.29A659.89,659.89,0,0,0,471,435.46C483.45,433.37,496.14,430.93,508.74,430.11Z" transform="translate(34 32)"/><path class="cls-6" d="M357.72,271.11c-2.27-4.21-2.59-9.72.21-13.61a22.06,22.06,0,0,0,8.78,12.33c1.66,1.13,3.62,2.21,4.19,4.13a5,5,0,0,1-.52,3.62,14.89,14.89,0,0,1-2.27,3l-.08.3C363.91,278.41,360,275.32,357.72,271.11Z" transform="translate(34 32)"/><path class="cls-6" d="M211.72,383.11c-2.27-4.21-2.59-9.72.21-13.61a22.06,22.06,0,0,0,8.78,12.33c1.66,1.13,3.62,2.21,4.19,4.13a5,5,0,0,1-.52,3.62,14.89,14.89,0,0,1-2.27,3l-.08.3C217.91,390.41,214,387.32,211.72,383.11Z" transform="translate(34 32)"/><path class="cls-6" d="M391.72,360.11c-2.27-4.21-2.59-9.72.21-13.61a22.06,22.06,0,0,0,8.78,12.33c1.66,1.13,3.62,2.21,4.19,4.13a5,5,0,0,1-.52,3.62,14.89,14.89,0,0,1-2.27,3l-.08.3C397.91,367.41,394,364.32,391.72,360.11Z" transform="translate(34 32)"/><path class="cls-3" d="M123.13,117.28a31,31,0,1,1,31-31A31,31,0,0,1,123.13,117.28Z" transform="translate(34 32)"/><path class="cls-7" d="M216.56,84.67c-8.07-8.47-17.45-16.2-28.56-20.29a46.33,46.33,0,0,0-9.56-2.4h-.08l-.16,0a37,37,0,0,0-13.67.82A37.74,37.74,0,0,0,158.17,65a54,54,0,0,0-6,3.39A39.11,39.11,0,0,1,139,73.3a44.34,44.34,0,0,1-7.09.69,17.23,17.23,0,0,0-6,.86,14.34,14.34,0,0,0-8.72,9.44.93.93,0,0,0,.42,1c.53.38,1,.81,1.6,1.15a4.94,4.94,0,0,0,1.56.42l2.65.55q4.89,1,9.83,1.71,10,1.52,20.07,2.13a223.43,223.43,0,0,0,40.39-1.21,226.35,226.35,0,0,0,22.42-3.88.9.9,0,0,0,.61-1.12A1,1,0,0,0,216.56,84.67Z" transform="translate(34 32)"/><path class="cls-7" d="M124.57,105.07a46.33,46.33,0,0,0-9.56-2.4h-.08l-.16,0a37,37,0,0,0-13.67.82,37.74,37.74,0,0,0-6.36,2.22,54.81,54.81,0,0,0-6,3.38A38.84,38.84,0,0,1,75.57,114a44.34,44.34,0,0,1-7.09.69,17,17,0,0,0-6,.86A14.3,14.3,0,0,0,53.81,125a.92.92,0,0,0,.41,1c.53.38,1,.81,1.6,1.15a4.94,4.94,0,0,0,1.56.42l2.65.55c3.27.64,6.54,1.21,9.83,1.71q10,1.52,20.07,2.13a223.57,223.57,0,0,0,40.4-1.21,226.66,226.66,0,0,0,22.41-3.88.9.9,0,0,0,.61-1.12.81.81,0,0,0-.22-.38C145.06,116.89,135.68,109.16,124.57,105.07Z" transform="translate(34 32)"/><path class="cls-8" d="M263,535H38a6,6,0,0,1,0-12H263a6,6,0,0,1,0,12Z" transform="translate(34 32)"/><path class="cls-8" d="M150,568.5H38a6,6,0,0,1,0-12H150a6,6,0,0,1,0,12Z" transform="translate(34 32)"/><polygon class="cls-9" points="141.38 416.04 158.58 402.98 166.96 411.36 138.94 430.54 141.38 416.04"/><path class="cls-9" d="M91.33,420H32.48l2.07-6.69h0c12.79-4.63,5.6-14.58,17.77-20.66,29.76-14.89,41.29-59.29,36.93-76.85l19.5-.82S135.69,391.47,91.33,420Z" transform="translate(34 32)"/><path class="cls-6" d="M141.57,388.57a9.88,9.88,0,0,1-12.78.23l0,0v0a9.47,9.47,0,0,0-.38-2.42,6.83,6.83,0,0,1-.25,1.68l-.05.18-.13-.13-.33-.36a10.09,10.09,0,0,1-1.52-2.3A29.19,29.19,0,0,0,118,375.31a14.47,14.47,0,0,1-1.7-1.62,14,14,0,0,1,17.53-21.26l.08.05,0,.09a7.3,7.3,0,0,1-1.3,1.87,9.2,9.2,0,0,0,2-1.45l.06-.06.07.05a14.22,14.22,0,0,1,2.56,2.28l.08.09a6.22,6.22,0,0,0,4.61,2.13,9.86,9.86,0,0,1,9.57,11.58v.07l-.06,0a8.47,8.47,0,0,1-3.46.43,10,10,0,0,0,3.08.77h.14l0,.13a9.88,9.88,0,0,1-2.86,4.3l0,0,0,0a9.71,9.71,0,0,0-3.36,6.74A9.94,9.94,0,0,1,141.57,388.57Z" transform="translate(34 32)"/><path class="cls-10" d="M143.37,385.39c0,.35-.06.71-.11,1.06a10.05,10.05,0,0,0,1.61-4.95,7.4,7.4,0,0,1,.08-.81A9.33,9.33,0,0,0,143.37,385.39Z" transform="translate(34 32)"/><path class="cls-10" d="M146.48,373.37a9.58,9.58,0,0,0,2.46.69,8.64,8.64,0,0,0,.9-1.1A8.5,8.5,0,0,1,146.48,373.37Z" transform="translate(34 32)"/><path class="cls-10" d="M150.11,370.12a10.44,10.44,0,0,1-.07,2.56,9.7,9.7,0,0,0,1.11-2.29l0-.13h-.13C150.74,370.22,150.42,370.18,150.11,370.12Z" transform="translate(34 32)"/><path class="cls-10" d="M149.19,360.73a9.89,9.89,0,0,0-7.26-3.35,6.27,6.27,0,0,1-4.61-2.13l-.08-.1a14.49,14.49,0,0,0-2.55-2.27l-.07-.05-.07.06a9.55,9.55,0,0,1-2,1.45,7.47,7.47,0,0,0,1.3-1.87l.05-.1-.09-.05a13.94,13.94,0,0,0-20.66,9,14,14,0,0,1,19-5.22l.14.08.09.05,0,.09a7.61,7.61,0,0,1-1.3,1.88,9.82,9.82,0,0,0,2-1.45l.06-.06.07,0a14.14,14.14,0,0,1,2.55,2.27l.08.1a6.29,6.29,0,0,0,4.62,2.13,9.88,9.88,0,0,1,9.56,8.12,11.44,11.44,0,0,0,1.43-.34l.07,0V369A9.84,9.84,0,0,0,149.19,360.73Z" transform="translate(34 32)"/><path class="cls-6" d="M170,320a31.84,31.84,0,0,1-26.6,31.41l-.16,0-.12-.1a30.66,30.66,0,0,0-6.66-4.23,21.61,21.61,0,0,1,3.53,4.16l.34.51-.61,0-1.56,0a31.87,31.87,0,0,1-8.79-1.21,93.43,93.43,0,0,0-41.47-1.88,46.59,46.59,0,0,1-7.54.63,44.93,44.93,0,0,1-14.14-87.58l.31-.1.12.3a23.27,23.27,0,0,1,1.77,7.11,30.84,30.84,0,0,0,.76-7.9v-.28l.27-.06a45.16,45.16,0,0,1,10.92-1.34h.4a20,20,0,0,0,15-6.63,31.85,31.85,0,0,1,45-2.12,31.28,31.28,0,0,1,3.39,3.61l.14.16-.09.2a27.37,27.37,0,0,1-6.31,9.27,31.1,31.1,0,0,0,8.41-5.8l.32-.31.22.38a31.86,31.86,0,0,1,4.34,16v.16a1,1,0,0,0,0,.17,31.32,31.32,0,0,0,9.17,22.45A32.06,32.06,0,0,1,170,320Z" transform="translate(34 32)"/><g class="cls-11"><path d="M131.08,244.76a22.33,22.33,0,0,1-4,4.92,30.65,30.65,0,0,0,6.27-3.92C132.6,245.4,131.85,245.07,131.08,244.76Z" transform="translate(34 32)"/><path d="M149.52,282.77a31.82,31.82,0,0,1,4.57,5.58,32.63,32.63,0,0,1-3-13.68,1,1,0,0,1,0-.17v-.16a31.86,31.86,0,0,0-4.34-16l-.22-.38-.32.31a31.2,31.2,0,0,1-5.8,4.42A31,31,0,0,0,149.52,282.77Z" transform="translate(34 32)"/><path d="M140.35,260v.34c0,.31,0,.62,0,.93a33.46,33.46,0,0,0,3.77-6.5l.09-.2-.14-.16a32,32,0,0,0-5.76-5.57A31.75,31.75,0,0,1,140.35,260Z" transform="translate(34 32)"/><path d="M160.28,297.12a28.25,28.25,0,0,1-4.06-4.94,31.81,31.81,0,0,1-15.28,42.31,31.31,31.31,0,0,1-8.29,2.58l-.16,0-.12-.1a30.66,30.66,0,0,0-6.66-4.23,21.92,21.92,0,0,1,3.53,4.16l.34.51-.61,0c-.53,0-1.06,0-1.56,0a32.27,32.27,0,0,1-8.79-1.22,93.47,93.47,0,0,0-41.48-1.88,45.28,45.28,0,0,1-7.53.63,44.78,44.78,0,0,1-29.84-11.38,45,45,0,0,0,40.6,25.73,46.59,46.59,0,0,0,7.54-.63,93.43,93.43,0,0,1,41.47,1.88,31.87,31.87,0,0,0,8.79,1.21l1.56,0,.61,0-.34-.51a21.61,21.61,0,0,0-3.53-4.16,30.66,30.66,0,0,1,6.66,4.23l.12.1.16,0a31.83,31.83,0,0,0,16.87-54.3Z" transform="translate(34 32)"/></g><text class="cls-12" transform="translate(582 217.93) scale(0.86 1)">Photo <tspan x="0" y="118.75">Uploading </tspan><tspan x="0" y="237.5">System</tspan></text></svg>