<svg id="e59edb86-a3bc-4694-8aac-31e565ca5cfc" xmlns="http://www.w3.org/2000/svg" viewBox="0 0 541.97 656.5"><defs><style>.cls-1{fill:#bf5b10;}.cls-2{opacity:0.2;isolation:isolate;}.cls-3{fill:#d0cde1;}.cls-4{fill:#2f2e41;}.cls-5{font-size:90px;stroke:#ee9522;stroke-miterlimit:10;stroke-width:4px;font-family:MyriadPro-Regular, Myriad Pro;}.cls-6{letter-spacing:-0.02em;}.cls-7{letter-spacing:-0.01em;}</style></defs><title>pro</title><path class="cls-1" d="M619,265a259.14,259.14,0,0,1-21.82,104.35l-.9,2C546,483.24,424.09,547.08,301,526l-4.87-.88a273,273,0,0,1-49-14.14q-3.85-1.51-7.67-3.14c-1.73-.74-3.46-1.5-5.17-2.28C138.43,462.14,77.08,368.27,77,265,77,118.64,198.35,0,348,0S619,118.64,619,265Z" transform="translate(-77.03)"/><path class="cls-2" d="M301,526l-4.87-.88c-1.06-30-4.69-91.68-17.08-156.24-6.77-35.34-16.18-71.56-29.22-103.94a322.12,322.12,0,0,0-15.29-32.8c-13.18-24.34-29.17-44.84-48.55-58.72l2.85-3.81Q213,186.95,232.3,218.29q5.79,9.38,11.11,20,5.72,11.38,10.9,24.17,3.3,8.14,6.39,16.84,13.41,37.79,22.81,86.23,2.08,10.69,4,21.92C297.18,445.47,300.11,499.08,301,526Z" transform="translate(-77.03)"/><path class="cls-2" d="M239.43,507.85c-1.73-.74-3.46-1.5-5.17-2.28-1.68-17.8-4.76-39.88-10.39-60.83a195.39,195.39,0,0,0-9.47-27.6c-6.42-14.7-14.73-27.2-25.48-34.9l2.85-3.81c11.26,8.06,19.94,20.8,26.65,35.71,7.56,16.79,12.6,36.34,16,55C236.88,483,238.45,496.42,239.43,507.85Z" transform="translate(-77.03)"/><ellipse class="cls-2" cx="81.99" cy="149.73" rx="24.12" ry="23.59"/><ellipse class="cls-2" cx="89.76" cy="352.79" rx="24.12" ry="23.59"/><path class="cls-2" d="M254.78,189.35c-5.11,28.22,6.18,53.78,6.18,53.78s19.59-20.2,24.7-48.43-6.17-53.77-6.17-53.77S259.9,161.13,254.78,189.35Z" transform="translate(-77.03)"/><path class="cls-2" d="M174.61,256.34c27.53,9.85,55.19,3.53,55.19,3.53s-17-22.28-44.5-32.12-55.18-3.52-55.18-3.52S147.09,246.5,174.61,256.34Z" transform="translate(-77.03)"/><path class="cls-2" d="M169.94,436.16c19.3,6.9,38.72,2.4,38.72,2.4S196.79,422.87,177.49,416s-38.71-2.39-38.71-2.39S150.65,429.26,169.94,436.16Z" transform="translate(-77.03)"/><ellipse class="cls-3" cx="270.43" cy="220.36" rx="105.64" ry="103.31"/><path class="cls-3" d="M306.19,299.46s13.21,61.34,13.21,67.79,62.72,35.52,62.72,35.52l56.13-9.69L458.05,335s-33-48.42-33-67.79Z" transform="translate(-77.03)"/><path class="cls-4" d="M597.18,369.34l-.9,2C546,483.24,424.09,547.08,301,526l-4.87-.88a273,273,0,0,1-49-14.14q-3.85-1.51-7.67-3.14c-1.73-.74-3.46-1.5-5.17-2.28A272,272,0,0,1,190,480.26l-12.52-35.52,7-5.26L199,428.67l15.44-11.53,4-3L279,368.89l4.47-3.34L315,342h0s34.07,54.29,83.6,38.15,48.44-62.43,48.44-62.43Z" transform="translate(-77.03)"/><path class="cls-4" d="M255.84,137.13s33.54-71.06,97.83-54.66,100.63,41,103.42,65.6-1.39,61.5-1.39,61.5-7-50.57-51.71-39.64-114.61,2.74-114.61,2.74L278.2,271.06s-12.57-17.76-26.55-6.83S211.12,159,255.84,137.13Z" transform="translate(-77.03)"/><path class="cls-4" d="M247.1,511q-3.85-1.51-7.67-3.14c-1.73-.74-3.46-1.5-5.17-2.28a272.37,272.37,0,0,1-70.23-46,93.43,93.43,0,0,1,13.41-14.81H227l7.42,24.41Z" transform="translate(-77.03)"/><path class="cls-4" d="M553.79,364l42.49,7.34a264.34,264.34,0,0,1-45.51,69.44Z" transform="translate(-77.03)"/><text class="cls-5" transform="translate(158.97 632)"><tspan class="cls-6">P</tspan><tspan class="cls-7" x="46.44" y="0">r</tspan><tspan x="74.97" y="0">ofile</tspan></text></svg>