<svg id="f6e57eab-e78c-43a1-914f-5ee1a605569e" xmlns="http://www.w3.org/2000/svg" viewBox="0 0 746.18 379.06"><defs><style>.cls-1{fill:#2f2e41;}.cls-2{fill:#bf4010;}.cls-3{fill:#9e616a;}.cls-4{fill:#a0616a;}.cls-5{fill:#fff;}.cls-6{fill:#e4e4e4;}.cls-7{fill:#cacaca;}.cls-8{font-size:90px;stroke:#ef3f2a;stroke-miterlimit:10;stroke-width:4px;font-family:MyriadHebrew-Regular, Myriad Hebrew;letter-spacing:0.01em;}.cls-9{letter-spacing:0em;}</style></defs><title>sit</title><path class="cls-1" d="M32.61,415.65l-1.41,0a407.61,407.61,0,0,1,5-52.24c6.1-36.95,16.25-61.21,30.16-72.12l.81,1.29C34.69,318,32.63,414.67,32.61,415.65Z" transform="translate(0 -36.89)"/><path class="cls-1" d="M50.25,415.27l-1.41,0c0-1.75.91-42.89,15.41-54.26l.81,1.29C51.15,373.18,50.26,414.85,50.25,415.27Z" transform="translate(0 -36.89)"/><ellipse class="cls-2" cx="75.21" cy="247.91" rx="7.06" ry="7.88"/><ellipse class="cls-2" cx="71.71" cy="315.69" rx="7.06" ry="7.88"/><path class="cls-1" d="M47,297.4a38.65,38.65,0,0,1-2.13,17.93A36.69,36.69,0,0,1,37.9,299,38.59,38.59,0,0,1,40,281.07,36.49,36.49,0,0,1,47,297.4Z" transform="translate(0 -36.89)"/><path class="cls-1" d="M70,320.38a28.15,28.15,0,0,1-16.17.78s5.09-7.36,13.2-10.47a28.15,28.15,0,0,1,16.17-.78S78.13,317.27,70,320.38Z" transform="translate(0 -36.89)"/><path class="cls-1" d="M130.89,380.41a16.7,16.7,0,0,1-10.38.54c4.47-6.92,11.85-10,18.85-7.88A20.62,20.62,0,0,1,130.89,380.41Z" transform="translate(0 -36.89)"/><polygon class="cls-3" points="355.4 368.42 346.13 368.42 341.72 328.47 355.4 328.47 355.4 368.42"/><path class="cls-1" d="M394.17,415.35H366.79v-.43c0-7.17,4.77-13,10.65-13h16.73Z" transform="translate(0 -36.89)"/><polygon class="cls-3" points="298.18 368.42 288.91 368.42 284.5 328.47 298.18 328.47 298.18 368.42"/><path class="cls-1" d="M341.76,415.35H314.38v-.43c0-7.17,4.78-13,10.66-13h16.72Z" transform="translate(0 -36.89)"/><path class="cls-3" d="M275.05,181.61l-12.84-2.22-4.15,7.46-44.64,12.71.12.69a7.8,7.8,0,0,0-11.88-.29,10.18,10.18,0,0,0-.25,13.27,7.78,7.78,0,0,0,11.87.28,9.48,9.48,0,0,0,2.08-3.56l54.07-12.6Z" transform="translate(0 -36.89)"/><path class="cls-3" d="M403.3,172.72a7.54,7.54,0,0,0-3.09.67l.26-.5-56.76-32.77-7.74,14,59,29.26c.62,5.13,4.84,8.74,9.44,8.05s7.82-5.41,7.2-10.55c-.56-4.65-4.12-8.13-8.32-8.13Z" transform="translate(0 -36.89)"/><ellipse class="cls-1" cx="289.01" cy="45.88" rx="25.07" ry="28.01"/><ellipse class="cls-4" cx="288.79" cy="55.78" rx="16" ry="17.87"/><ellipse class="cls-1" cx="289.01" cy="38.15" rx="17.29" ry="11.59"/><ellipse class="cls-1" cx="290.74" cy="17.87" rx="10.38" ry="11.59"/><path class="cls-1" d="M276.9,48.48c0-5.93,4-10.91,9.3-11.53a9.77,9.77,0,0,0-1.08-.06c-5.73,0-10.38,5.2-10.37,11.6s4.64,11.57,10.37,11.58A9.77,9.77,0,0,0,286.2,60C280.91,59.39,276.9,54.41,276.9,48.48Z" transform="translate(0 -36.89)"/><path class="cls-1" d="M280.47,137l1.29-13.85s17.51-12.88,23.45-5.27l35.56,67.95s22.1,8.78,21.32,42.29l-1.06,162L336,393.2,320.75,266.9,307,397.76l-29.17-1,2.62-86.21L294.36,227l-.13-27.73-6.13-11.19s-11.22-5-11.53-19.27l-.25-20Z" transform="translate(0 -36.89)"/><path class="cls-1" d="M298.83,121.7l.34-6.49s52.94,15.58,48.74,26.73-12.07,14.66-12.07,14.66l-30.45-13.49Z" transform="translate(0 -36.89)"/><path class="cls-1" d="M285,137.86l-4-4.74s-31.77,49.8-22.17,55.36,17.68,2.65,17.68,2.65L292.2,159Z" transform="translate(0 -36.89)"/><path class="cls-5" d="M221.4,300l199.36-44.46L404.1,162.34,204.73,206.79Z" transform="translate(0 -36.89)"/><path class="cls-6" d="M422.39,256.79,220.31,301.85,203.1,205.58l202.09-45.06ZM222.48,298.21l196.65-43.85L403,164.16,206.37,208Z" transform="translate(0 -36.89)"/><polygon class="cls-6" points="229.13 191.3 390.48 155.32 391.32 160.02 229.97 196 229.13 191.3"/><polygon class="cls-6" points="232.41 209.59 393.75 173.62 394.59 178.32 233.25 214.29 232.41 209.59"/><polygon class="cls-6" points="235.69 228 397.04 192.02 397.88 196.72 236.53 232.69 235.69 228"/><path class="cls-2" d="M313.39,221.41l-5.64,1.26a1.6,1.6,0,0,1-1.87-1.39l-2.67-14.93a1.77,1.77,0,0,1,1.25-2.08L310.1,203A1.61,1.61,0,0,1,312,204.4l2.66,14.93A1.77,1.77,0,0,1,313.39,221.41Z" transform="translate(0 -36.89)"/><path class="cls-2" d="M377.67,226.1,372,227.36a1.6,1.6,0,0,1-1.86-1.39L367.49,211a1.77,1.77,0,0,1,1.24-2.08l5.65-1.26a1.6,1.6,0,0,1,1.86,1.39L378.91,224A1.77,1.77,0,0,1,377.67,226.1Z" transform="translate(0 -36.89)"/><path class="cls-2" d="M342.86,253l-5.65,1.26a1.6,1.6,0,0,1-1.86-1.39l-2.67-14.93a1.77,1.77,0,0,1,1.25-2.08l5.64-1.26a1.6,1.6,0,0,1,1.86,1.39l2.67,14.93A1.77,1.77,0,0,1,342.86,253Z" transform="translate(0 -36.89)"/><path class="cls-7" d="M485.9,416H.65a.81.81,0,0,1,0-1.58H485.9a.81.81,0,0,1,0,1.58Z" transform="translate(0 -36.89)"/><text class="cls-8" transform="translate(437.56 232.69)">S<tspan class="cls-9" x="44.91" y="0">ettings</tspan></text></svg>